<?xml-stylesheet href="https://cdnjs.cloudflare.com/ajax/libs/font-awesome/6.7.2/css/all.min.css" type="text/css"?><svg xmlns="http://www.w3.org/2000/svg" xmlns:xlink="http://www.w3.org/1999/xlink" id="graph-div" width="100%" height="100%" aria-roledescription="flowchart-v2" role="graphics-document document" viewBox="0 0 1328 1123" style="max-width:100%" class="flowchart"><style>#graph-div{font-family:&quot;trebuchet ms&quot;,verdana,arial,sans-serif;font-size:16px;fill:#333}#graph-div .edge-thickness-normal{stroke-width:1px}#graph-div .edge-pattern-solid{stroke-dasharray:0}#graph-div .marker{fill:#333;stroke:#333}#graph-div .marker.cross{stroke:#333}#graph-div .label,#graph-div svg{font-family:&quot;trebuchet ms&quot;,verdana,arial,sans-serif}#graph-div svg{font-size:16px}#graph-div p{margin:0}#graph-div .cluster span,#graph-div .cluster-label span,#graph-div .label{color:#333}#graph-div .cluster-label span p{background-color:transparent}#graph-div span{fill:#333;color:#333}#graph-div .node circle,#graph-div .node path,#graph-div .node rect{fill:#ececff;stroke:#9370db;stroke-width:1px}#graph-div .flowchart-link{stroke:#333;fill:none}#graph-div .edgeLabel,#graph-div .node .label{text-align:center}#graph-div .edgeLabel,#graph-div .edgeLabel p,#graph-div .edgeLabel rect{background-color:rgba(232,232,232,.8)}#graph-div .edgeLabel rect{opacity:.5;fill:rgba(232,232,232,.8)}#graph-div .labelBkg{background-color:rgba(232,232,232,.5)}#graph-div .cluster rect{fill:#ffffde;stroke:#aa3;stroke-width:1px}#graph-div :root{--mermaid-font-family:&quot;trebuchet ms&quot;,verdana,arial,sans-serif}</style><g><marker id="graph-div_flowchart-v2-pointEnd" class="marker flowchart-v2" markerHeight="8" markerUnits="userSpaceOnUse" markerWidth="8" orient="auto" refX="5" refY="5" viewBox="0 0 10 10"><path style="stroke-width:1;stroke-dasharray:1,0" d="M 0 0 L 10 5 L 0 10 z" class="arrowMarkerPath"/></marker><marker id="graph-div_flowchart-v2-pointStart" class="marker flowchart-v2" markerHeight="8" markerUnits="userSpaceOnUse" markerWidth="8" orient="auto" refX="4.5" refY="5" viewBox="0 0 10 10"><path style="stroke-width:1;stroke-dasharray:1,0" d="M 0 5 L 10 10 L 10 0 z" class="arrowMarkerPath"/></marker><marker id="graph-div_flowchart-v2-circleEnd" class="marker flowchart-v2" markerHeight="11" markerUnits="userSpaceOnUse" markerWidth="11" orient="auto" refX="11" refY="5" viewBox="0 0 10 10"><circle style="stroke-width:1;stroke-dasharray:1,0" cx="5" cy="5" r="5" class="arrowMarkerPath"/></marker><marker id="graph-div_flowchart-v2-circleStart" class="marker flowchart-v2" markerHeight="11" markerUnits="userSpaceOnUse" markerWidth="11" orient="auto" refX="-1" refY="5" viewBox="0 0 10 10"><circle style="stroke-width:1;stroke-dasharray:1,0" cx="5" cy="5" r="5" class="arrowMarkerPath"/></marker><marker id="graph-div_flowchart-v2-crossEnd" class="marker cross flowchart-v2" markerHeight="11" markerUnits="userSpaceOnUse" markerWidth="11" orient="auto" refX="12" refY="5.2" viewBox="0 0 11 11"><path style="stroke-width:2;stroke-dasharray:1,0" d="M 1,1 l 9,9 M 10,1 l -9,9" class="arrowMarkerPath"/></marker><marker id="graph-div_flowchart-v2-crossStart" class="marker cross flowchart-v2" markerHeight="11" markerUnits="userSpaceOnUse" markerWidth="11" orient="auto" refX="-1" refY="5.2" viewBox="0 0 11 11"><path style="stroke-width:2;stroke-dasharray:1,0" d="M 1,1 l 9,9 M 10,1 l -9,9" class="arrowMarkerPath"/></marker><g class="root"><g class="clusters"><g id="Key_Concepts" class="cluster" data-look="classic"><rect width="740.469" height="540" x="579.531" y="8"/><g class="cluster-label" transform="translate(902.046875, 8)"><foreignObject width="95.438" height="24"><div xmlns="http://www.w3.org/1999/xhtml" style="display:table-cell;white-space:nowrap;line-height:1.5;max-width:200px;text-align:center"><span class="nodeLabel"><p>Key Concepts</p></span></div></foreignObject></g></g><g id="Database_Types" class="cluster" data-look="classic"><rect width="612.266" height="238" x="277.266" y="788"/><g class="cluster-label" transform="translate(528.65625, 788)"><foreignObject width="109.484" height="24"><div xmlns="http://www.w3.org/1999/xhtml" style="display:table-cell;white-space:nowrap;line-height:1.5;max-width:200px;text-align:center"><span class="nodeLabel"><p>Database Types</p></span></div></foreignObject></g></g></g><g class="edgePaths"><path id="L_A_B_0" marker-end="url(#graph-div_flowchart-v2-pointEnd)" d="M100.065,823L117.618,806.833C135.171,790.667,170.277,758.333,199.81,742.167C229.344,726,253.305,726,273.253,726C293.201,726,309.135,726,317.103,726L325.07,726" class="edge-thickness-normal edge-pattern-solid flowchart-link"/><path id="L_A_C_1" marker-end="url(#graph-div_flowchart-v2-pointEnd)" d="M86.693,823L106.475,789.5C126.257,756,165.82,689,197.582,655.5C229.344,622,253.305,622,279.564,622C305.823,622,334.38,622,348.659,622L362.938,622" class="edge-thickness-normal edge-pattern-solid flowchart-link"/><path id="L_C_D_2" marker-end="url(#graph-div_flowchart-v2-pointEnd)" d="M464.859,622L479.805,622C494.75,622,524.641,622,543.753,622C562.865,622,571.198,622,578.865,622C586.531,622,593.531,622,597.031,622L600.531,622" class="edge-thickness-normal edge-pattern-solid flowchart-link"/><path id="L_A_E_3" marker-end="url(#graph-div_flowchart-v2-pointEnd)" d="M86.023,877L105.917,912.167C125.81,947.333,165.596,1017.667,197.47,1052.833C229.344,1088,253.305,1088,273.624,1088C293.943,1088,310.62,1088,318.958,1088L327.297,1088" class="edge-thickness-normal edge-pattern-solid flowchart-link"/><path id="L_F1_G1_4" marker-end="url(#graph-div_flowchart-v2-pointEnd)" d="M513.734,857.057L520.534,857.548C527.333,858.038,540.932,859.019,551.898,859.51C562.865,860,571.198,860,579.432,860C587.667,860,595.802,860,599.87,860L603.938,860" class="edge-thickness-normal edge-pattern-solid flowchart-link"/><path id="L_F2_G2_5" marker-end="url(#graph-div_flowchart-v2-pointEnd)" d="M529.531,964L533.698,964C537.865,964,546.198,964,554.531,964C562.865,964,571.198,964,579.322,964C587.445,964,595.359,964,599.316,964L603.273,964" class="edge-thickness-normal edge-pattern-solid flowchart-link"/><path id="L_A_F1_6" marker-end="url(#graph-div_flowchart-v2-pointEnd)" d="M133.5,850L145.48,850C157.461,850,181.422,850,205.383,850C229.344,850,253.305,850,271.418,850C289.531,850,301.797,850,307.93,850L314.063,850" class="edge-thickness-normal edge-pattern-solid flowchart-link"/><path id="L_A_F2_7" marker-end="url(#graph-div_flowchart-v2-pointEnd)" d="M102.637,877L119.761,891.5C136.885,906,171.134,935,200.239,949.5C229.344,964,253.305,964,268.785,964C284.266,964,291.266,964,294.766,964L298.266,964" class="edge-thickness-normal edge-pattern-solid flowchart-link"/><path id="L_H1_H2_8" marker-end="url(#graph-div_flowchart-v2-pointEnd)" d="M754.651,251L777.131,220.833C799.611,190.667,844.571,130.333,879.57,100.167C914.568,70,939.604,70,970.521,70C1001.438,70,1038.234,70,1056.633,70L1075.031,70" class="edge-thickness-normal edge-pattern-solid flowchart-link"/><path id="L_H1_H3_9" marker-end="url(#graph-div_flowchart-v2-pointEnd)" d="M774.772,251L793.898,238.167C813.025,225.333,851.278,199.667,882.923,186.833C914.568,174,939.604,174,963.974,174C988.344,174,1012.047,174,1023.898,174L1035.75,174" class="edge-thickness-normal edge-pattern-solid flowchart-link"/><path id="L_H1_H4_10" marker-end="url(#graph-div_flowchart-v2-pointEnd)" d="M786.805,278L803.926,278C821.047,278,855.289,278,884.928,278C914.568,278,939.604,278,973.159,278C1006.714,278,1048.786,278,1069.823,278L1090.859,278" class="edge-thickness-normal edge-pattern-solid flowchart-link"/><path id="L_H1_H5_11" marker-end="url(#graph-div_flowchart-v2-pointEnd)" d="M774.772,305L793.898,317.833C813.025,330.667,851.278,356.333,882.923,369.167C914.568,382,939.604,382,969.872,382C1000.141,382,1035.641,382,1053.391,382L1071.141,382" class="edge-thickness-normal edge-pattern-solid flowchart-link"/><path id="L_H1_H6_12" marker-end="url(#graph-div_flowchart-v2-pointEnd)" d="M754.651,305L777.131,335.167C799.611,365.333,844.571,425.667,879.57,455.833C914.568,486,939.604,486,964.707,486C989.81,486,1014.979,486,1027.564,486L1040.148,486" class="edge-thickness-normal edge-pattern-solid flowchart-link"/><path id="L_F1_H1_13" marker-end="url(#graph-div_flowchart-v2-pointEnd)" d="M513.734,835.18L520.534,834.15C527.333,833.12,540.932,831.06,551.898,830.03C562.865,829,571.198,829,599.752,742.308C628.305,655.617,677.079,482.234,701.466,395.542L725.853,308.851" class="edge-thickness-normal edge-pattern-solid flowchart-link"/></g><g class="edgeLabels"><g class="edgeLabel"><g class="label" transform="translate(205.3828125, 726) translate(-22.0234375, -12)"><foreignObject width="44.047" height="24"><div xmlns="http://www.w3.org/1999/xhtml" style="display:table-cell;white-space:nowrap;line-height:1.5;max-width:200px;text-align:center" class="labelBkg"><span class="edgeLabel"><p>Stores</p></span></div></foreignObject></g></g><g class="edgeLabel"><g class="label" transform="translate(205.3828125, 622) translate(-42.1015625, -12)"><foreignObject width="84.203" height="24"><div xmlns="http://www.w3.org/1999/xhtml" style="display:table-cell;white-space:nowrap;line-height:1.5;max-width:200px;text-align:center" class="labelBkg"><span class="edgeLabel"><p>Managed by</p></span></div></foreignObject></g></g><g class="edgeLabel"><g class="label" transform="translate(0, 0)"><foreignObject width="0" height="0"><div xmlns="http://www.w3.org/1999/xhtml" style="display:table-cell;white-space:nowrap;line-height:1.5;max-width:200px;text-align:center" class="labelBkg"><span class="edgeLabel"/></div></foreignObject></g></g><g class="edgeLabel"><g class="label" transform="translate(205.3828125, 1088) translate(-27.90625, -12)"><foreignObject width="55.813" height="24"><div xmlns="http://www.w3.org/1999/xhtml" style="display:table-cell;white-space:nowrap;line-height:1.5;max-width:200px;text-align:center" class="labelBkg"><span class="edgeLabel"><p>Analogy</p></span></div></foreignObject></g></g><g class="edgeLabel"><g class="label" transform="translate(0, 0)"><foreignObject width="0" height="0"><div xmlns="http://www.w3.org/1999/xhtml" style="display:table-cell;white-space:nowrap;line-height:1.5;max-width:200px;text-align:center" class="labelBkg"><span class="edgeLabel"/></div></foreignObject></g></g><g class="edgeLabel"><g class="label" transform="translate(0, 0)"><foreignObject width="0" height="0"><div xmlns="http://www.w3.org/1999/xhtml" style="display:table-cell;white-space:nowrap;line-height:1.5;max-width:200px;text-align:center" class="labelBkg"><span class="edgeLabel"/></div></foreignObject></g></g><g class="edgeLabel"><g class="label" transform="translate(205.3828125, 850) translate(-37.9375, -12)"><foreignObject width="75.875" height="24"><div xmlns="http://www.w3.org/1999/xhtml" style="display:table-cell;white-space:nowrap;line-height:1.5;max-width:200px;text-align:center" class="labelBkg"><span class="edgeLabel"><p>Structured</p></span></div></foreignObject></g></g><g class="edgeLabel"><g class="label" transform="translate(205.3828125, 964) translate(-46.8828125, -12)"><foreignObject width="93.766" height="24"><div xmlns="http://www.w3.org/1999/xhtml" style="display:table-cell;white-space:nowrap;line-height:1.5;max-width:200px;text-align:center" class="labelBkg"><span class="edgeLabel"><p>Unstructured</p></span></div></foreignObject></g></g><g class="edgeLabel"><g class="label" transform="translate(964.640625, 70) translate(-27.4765625, -12)"><foreignObject width="54.953" height="24"><div xmlns="http://www.w3.org/1999/xhtml" style="display:table-cell;white-space:nowrap;line-height:1.5;max-width:200px;text-align:center" class="labelBkg"><span class="edgeLabel"><p>Contain</p></span></div></foreignObject></g></g><g class="edgeLabel"><g class="label" transform="translate(964.640625, 174) translate(-42.453125, -12)"><foreignObject width="84.906" height="24"><div xmlns="http://www.w3.org/1999/xhtml" style="display:table-cell;white-space:nowrap;line-height:1.5;max-width:200px;text-align:center" class="labelBkg"><span class="edgeLabel"><p>Primary Key</p></span></div></foreignObject></g></g><g class="edgeLabel"><g class="label" transform="translate(964.640625, 278) translate(-41.7109375, -12)"><foreignObject width="83.422" height="24"><div xmlns="http://www.w3.org/1999/xhtml" style="display:table-cell;white-space:nowrap;line-height:1.5;max-width:200px;text-align:center" class="labelBkg"><span class="edgeLabel"><p>Foreign Key</p></span></div></foreignObject></g></g><g class="edgeLabel"><g class="label" transform="translate(964.640625, 382) translate(-30.09375, -12)"><foreignObject width="60.188" height="24"><div xmlns="http://www.w3.org/1999/xhtml" style="display:table-cell;white-space:nowrap;line-height:1.5;max-width:200px;text-align:center" class="labelBkg"><span class="edgeLabel"><p>Indexing</p></span></div></foreignObject></g></g><g class="edgeLabel"><g class="label" transform="translate(964.640625, 486) translate(-50.109375, -12)"><foreignObject width="100.219" height="24"><div xmlns="http://www.w3.org/1999/xhtml" style="display:table-cell;white-space:nowrap;line-height:1.5;max-width:200px;text-align:center" class="labelBkg"><span class="edgeLabel"><p>Normalization</p></span></div></foreignObject></g></g><g class="edgeLabel"><g class="label" transform="translate(0, 0)"><foreignObject width="0" height="0"><div xmlns="http://www.w3.org/1999/xhtml" style="display:table-cell;white-space:nowrap;line-height:1.5;max-width:200px;text-align:center" class="labelBkg"><span class="edgeLabel"/></div></foreignObject></g></g></g><g class="nodes"><g id="flowchart-A-2975" class="node default" transform="translate(70.75, 850)"><rect width="125.5" height="54" x="-62.75" y="-27" class="basic label-container"/><g class="label" transform="translate(-32.75, -12)"><rect/><foreignObject width="65.5" height="24"><div xmlns="http://www.w3.org/1999/xhtml" style="display:table-cell;white-space:nowrap;line-height:1.5;max-width:200px;text-align:center"><span class="nodeLabel"><p>Database</p></span></div></foreignObject></g></g><g id="flowchart-B-2976" class="node default" transform="translate(415.8984375, 726)"><rect width="173.656" height="54" x="-86.828" y="-27" class="basic label-container"/><g class="label" transform="translate(-56.828125, -12)"><rect/><foreignObject width="113.656" height="24"><div xmlns="http://www.w3.org/1999/xhtml" style="display:table-cell;white-space:nowrap;line-height:1.5;max-width:200px;text-align:center"><span class="nodeLabel"><p>Structured Data</p></span></div></foreignObject></g></g><g id="flowchart-C-2978" class="node default" transform="translate(415.8984375, 622)"><rect width="97.922" height="54" x="-48.961" y="-27" class="basic label-container"/><g class="label" transform="translate(-18.9609375, -12)"><rect/><foreignObject width="37.922" height="24"><div xmlns="http://www.w3.org/1999/xhtml" style="display:table-cell;white-space:nowrap;line-height:1.5;max-width:200px;text-align:center"><span class="nodeLabel"><p>DBMS</p></span></div></foreignObject></g></g><g id="flowchart-D-2980" class="node default" transform="translate(734.53125, 622)"><rect width="260" height="78" x="-130" y="-39" class="basic label-container"/><g class="label" transform="translate(-100, -24)"><rect/><foreignObject width="200" height="48"><div xmlns="http://www.w3.org/1999/xhtml" style="display:table;white-space:break-spaces;line-height:1.5;max-width:200px;text-align:center;width:200px"><span class="nodeLabel"><p>MySQL, PostgreSQL, Oracle, MongoDB</p></span></div></foreignObject></g></g><g id="flowchart-E-2982" class="node default" transform="translate(415.8984375, 1088)"><rect width="169.203" height="54" x="-84.602" y="-27" class="basic label-container"/><g class="label" transform="translate(-54.6015625, -12)"><rect/><foreignObject width="109.203" height="24"><div xmlns="http://www.w3.org/1999/xhtml" style="display:table-cell;white-space:nowrap;line-height:1.5;max-width:200px;text-align:center"><span class="nodeLabel"><p>Library Catalog</p></span></div></foreignObject></g></g><g id="flowchart-F1-2983" class="node default" transform="translate(415.8984375, 850)"><rect width="195.672" height="54" x="-97.836" y="-27" class="basic label-container"/><g class="label" transform="translate(-67.8359375, -12)"><rect/><foreignObject width="135.672" height="24"><div xmlns="http://www.w3.org/1999/xhtml" style="display:table-cell;white-space:nowrap;line-height:1.5;max-width:200px;text-align:center"><span class="nodeLabel"><p>Relational (RDBMS)</p></span></div></foreignObject></g></g><g id="flowchart-G1-2984" class="node default" transform="translate(734.53125, 860)"><rect width="253.188" height="54" x="-126.594" y="-27" class="basic label-container"/><g class="label" transform="translate(-96.59375, -12)"><rect/><foreignObject width="193.188" height="24"><div xmlns="http://www.w3.org/1999/xhtml" style="display:table-cell;white-space:nowrap;line-height:1.5;max-width:200px;text-align:center"><span class="nodeLabel"><p>MySQL, PostgreSQL, Oracle</p></span></div></foreignObject></g></g><g id="flowchart-F2-2985" class="node default" transform="translate(415.8984375, 964)"><rect width="227.266" height="54" x="-113.633" y="-27" class="basic label-container"/><g class="label" transform="translate(-83.6328125, -12)"><rect/><foreignObject width="167.266" height="24"><div xmlns="http://www.w3.org/1999/xhtml" style="display:table-cell;white-space:nowrap;line-height:1.5;max-width:200px;text-align:center"><span class="nodeLabel"><p>Non-Relational (NoSQL)</p></span></div></foreignObject></g></g><g id="flowchart-G2-2986" class="node default" transform="translate(734.53125, 964)"><rect width="254.516" height="54" x="-127.258" y="-27" class="basic label-container"/><g class="label" transform="translate(-97.2578125, -12)"><rect/><foreignObject width="194.516" height="24"><div xmlns="http://www.w3.org/1999/xhtml" style="display:table-cell;white-space:nowrap;line-height:1.5;max-width:200px;text-align:center"><span class="nodeLabel"><p>MongoDB, Redis, Cassandra</p></span></div></foreignObject></g></g><g id="flowchart-H1-2991" class="node default" transform="translate(734.53125, 278)"><rect width="104.547" height="54" x="-52.273" y="-27" class="basic label-container"/><g class="label" transform="translate(-22.2734375, -12)"><rect/><foreignObject width="44.547" height="24"><div xmlns="http://www.w3.org/1999/xhtml" style="display:table-cell;white-space:nowrap;line-height:1.5;max-width:200px;text-align:center"><span class="nodeLabel"><p>Tables</p></span></div></foreignObject></g></g><g id="flowchart-H2-2992" class="node default" transform="translate(1167.375, 70)"><rect width="176.688" height="54" x="-88.344" y="-27" class="basic label-container"/><g class="label" transform="translate(-58.34375, -12)"><rect/><foreignObject width="116.688" height="24"><div xmlns="http://www.w3.org/1999/xhtml" style="display:table-cell;white-space:nowrap;line-height:1.5;max-width:200px;text-align:center"><span class="nodeLabel"><p>Rows &amp; Columns</p></span></div></foreignObject></g></g><g id="flowchart-H3-2994" class="node default" transform="translate(1167.375, 174)"><rect width="255.25" height="54" x="-127.625" y="-27" class="basic label-container"/><g class="label" transform="translate(-97.625, -12)"><rect/><foreignObject width="195.25" height="24"><div xmlns="http://www.w3.org/1999/xhtml" style="display:table-cell;white-space:nowrap;line-height:1.5;max-width:200px;text-align:center"><span class="nodeLabel"><p>Uniquely Identifies Records</p></span></div></foreignObject></g></g><g id="flowchart-H4-2996" class="node default" transform="translate(1167.375, 278)"><rect width="145.031" height="54" x="-72.516" y="-27" class="basic label-container"/><g class="label" transform="translate(-42.515625, -12)"><rect/><foreignObject width="85.031" height="24"><div xmlns="http://www.w3.org/1999/xhtml" style="display:table-cell;white-space:nowrap;line-height:1.5;max-width:200px;text-align:center"><span class="nodeLabel"><p>Links Tables</p></span></div></foreignObject></g></g><g id="flowchart-H5-2998" class="node default" transform="translate(1167.375, 382)"><rect width="184.469" height="54" x="-92.234" y="-27" class="basic label-container"/><g class="label" transform="translate(-62.234375, -12)"><rect/><foreignObject width="124.469" height="24"><div xmlns="http://www.w3.org/1999/xhtml" style="display:table-cell;white-space:nowrap;line-height:1.5;max-width:200px;text-align:center"><span class="nodeLabel"><p>Speeds up Search</p></span></div></foreignObject></g></g><g id="flowchart-H6-3000" class="node default" transform="translate(1167.375, 486)"><rect width="246.453" height="54" x="-123.227" y="-27" class="basic label-container"/><g class="label" transform="translate(-93.2265625, -12)"><rect/><foreignObject width="186.453" height="24"><div xmlns="http://www.w3.org/1999/xhtml" style="display:table-cell;white-space:nowrap;line-height:1.5;max-width:200px;text-align:center"><span class="nodeLabel"><p>Reduces Data Redundancy</p></span></div></foreignObject></g></g></g></g></g></svg>