<?xml-stylesheet href="https://cdnjs.cloudflare.com/ajax/libs/font-awesome/6.7.2/css/all.min.css" type="text/css"?><svg xmlns="http://www.w3.org/2000/svg" xmlns:xlink="http://www.w3.org/1999/xlink" id="graph-div" width="100%" height="100%" aria-roledescription="flowchart-v2" role="graphics-document document" viewBox="0 0 1600.672 932" style="max-width:100%" class="flowchart"><style>#graph-div{font-family:&quot;trebuchet ms&quot;,verdana,arial,sans-serif;font-size:16px;fill:#333}#graph-div .edge-thickness-normal{stroke-width:1px}#graph-div .edge-pattern-solid{stroke-dasharray:0}#graph-div .marker{fill:#333;stroke:#333}#graph-div .marker.cross{stroke:#333}#graph-div .label,#graph-div svg{font-family:&quot;trebuchet ms&quot;,verdana,arial,sans-serif}#graph-div svg{font-size:16px}#graph-div p{margin:0}#graph-div .cluster span,#graph-div .cluster-label span,#graph-div .label{color:#333}#graph-div .cluster-label span p{background-color:transparent}#graph-div span{fill:#333;color:#333}#graph-div .node circle,#graph-div .node path,#graph-div .node rect{fill:#ececff;stroke:#9370db;stroke-width:1px}#graph-div .flowchart-link{stroke:#333;fill:none}#graph-div .edgeLabel,#graph-div .node .label{text-align:center}#graph-div .edgeLabel,#graph-div .edgeLabel p,#graph-div .edgeLabel rect{background-color:rgba(232,232,232,.8)}#graph-div .edgeLabel rect{opacity:.5;fill:rgba(232,232,232,.8)}#graph-div .labelBkg{background-color:rgba(232,232,232,.5)}#graph-div .cluster rect{fill:#ffffde;stroke:#aa3;stroke-width:1px}#graph-div :root{--mermaid-font-family:&quot;trebuchet ms&quot;,verdana,arial,sans-serif}</style><g><marker id="graph-div_flowchart-v2-pointEnd" class="marker flowchart-v2" markerHeight="8" markerUnits="userSpaceOnUse" markerWidth="8" orient="auto" refX="5" refY="5" viewBox="0 0 10 10"><path style="stroke-width:1;stroke-dasharray:1,0" d="M 0 0 L 10 5 L 0 10 z" class="arrowMarkerPath"/></marker><marker id="graph-div_flowchart-v2-pointStart" class="marker flowchart-v2" markerHeight="8" markerUnits="userSpaceOnUse" markerWidth="8" orient="auto" refX="4.5" refY="5" viewBox="0 0 10 10"><path style="stroke-width:1;stroke-dasharray:1,0" d="M 0 5 L 10 10 L 10 0 z" class="arrowMarkerPath"/></marker><marker id="graph-div_flowchart-v2-circleEnd" class="marker flowchart-v2" markerHeight="11" markerUnits="userSpaceOnUse" markerWidth="11" orient="auto" refX="11" refY="5" viewBox="0 0 10 10"><circle style="stroke-width:1;stroke-dasharray:1,0" cx="5" cy="5" r="5" class="arrowMarkerPath"/></marker><marker id="graph-div_flowchart-v2-circleStart" class="marker flowchart-v2" markerHeight="11" markerUnits="userSpaceOnUse" markerWidth="11" orient="auto" refX="-1" refY="5" viewBox="0 0 10 10"><circle style="stroke-width:1;stroke-dasharray:1,0" cx="5" cy="5" r="5" class="arrowMarkerPath"/></marker><marker id="graph-div_flowchart-v2-crossEnd" class="marker cross flowchart-v2" markerHeight="11" markerUnits="userSpaceOnUse" markerWidth="11" orient="auto" refX="12" refY="5.2" viewBox="0 0 11 11"><path style="stroke-width:2;stroke-dasharray:1,0" d="M 1,1 l 9,9 M 10,1 l -9,9" class="arrowMarkerPath"/></marker><marker id="graph-div_flowchart-v2-crossStart" class="marker cross flowchart-v2" markerHeight="11" markerUnits="userSpaceOnUse" markerWidth="11" orient="auto" refX="-1" refY="5.2" viewBox="0 0 11 11"><path style="stroke-width:2;stroke-dasharray:1,0" d="M 1,1 l 9,9 M 10,1 l -9,9" class="arrowMarkerPath"/></marker><g class="root"><g class="clusters"><g id="ALTER_Modifications" class="cluster" data-look="classic"><rect width="642.797" height="332" x="949.875" y="8"/><g class="cluster-label" transform="translate(1199.859375, 8)"><foreignObject width="142.828" height="24"><div xmlns="http://www.w3.org/1999/xhtml" style="display:table-cell;white-space:nowrap;line-height:1.5;max-width:200px;text-align:center"><span class="nodeLabel"><p>ALTER Modifications</p></span></div></foreignObject></g></g><g id="Commands" class="cluster" data-look="classic"><rect width="581.797" height="564" x="678.078" y="360"/><g class="cluster-label" transform="translate(930.34375, 360)"><foreignObject width="77.266" height="24"><div xmlns="http://www.w3.org/1999/xhtml" style="display:table-cell;white-space:nowrap;line-height:1.5;max-width:200px;text-align:center"><span class="nodeLabel"><p>Commands</p></span></div></foreignObject></g></g></g><g class="edgePaths"><path id="L_A_B_0" marker-end="url(#graph-div_flowchart-v2-pointEnd)" d="M268,630L282.561,630C297.122,630,326.245,630,354.701,630C383.156,630,410.945,630,424.84,630L438.734,630" class="edge-thickness-normal edge-pattern-solid flowchart-link"/><path id="L_C1_D1_1" marker-end="url(#graph-div_flowchart-v2-pointEnd)" d="M826.93,526L838.063,526C849.195,526,871.461,526,891.952,526C912.443,526,931.159,526,947.286,526C963.414,526,976.953,526,983.723,526L990.492,526" class="edge-thickness-normal edge-pattern-solid flowchart-link"/><path id="L_C2_D2_2" marker-end="url(#graph-div_flowchart-v2-pointEnd)" d="M786.346,449L804.243,479.167C822.14,509.333,857.933,569.667,885.188,599.833C912.443,630,931.159,630,950.094,630C969.029,630,988.182,630,997.759,630L1007.336,630" class="edge-thickness-normal edge-pattern-solid flowchart-link"/><path id="L_C3_D3_3" marker-end="url(#graph-div_flowchart-v2-pointEnd)" d="M819.742,734L832.073,734C844.404,734,869.065,734,890.754,734C912.443,734,931.159,734,947.286,734C963.414,734,976.953,734,983.723,734L990.492,734" class="edge-thickness-normal edge-pattern-solid flowchart-link"/><path id="L_C4_D4_4" marker-end="url(#graph-div_flowchart-v2-pointEnd)" d="M837.578,850L846.936,850C856.294,850,875.01,850,893.727,850C912.443,850,931.159,850,944.017,850C956.875,850,963.875,850,967.375,850L970.875,850" class="edge-thickness-normal edge-pattern-solid flowchart-link"/><path id="L_B_C1_5" marker-end="url(#graph-div_flowchart-v2-pointEnd)" d="M565.956,603L580.476,590.167C594.996,577.333,624.037,551.667,642.724,538.833C661.411,526,669.745,526,679.186,526C688.628,526,699.177,526,704.452,526L709.727,526" class="edge-thickness-normal edge-pattern-solid flowchart-link"/><path id="L_B_C2_6" marker-end="url(#graph-div_flowchart-v2-pointEnd)" d="M550.681,603L567.747,572.833C584.813,542.667,618.946,482.333,640.179,452.167C661.411,422,669.745,422,680.03,422C690.315,422,702.552,422,708.671,422L714.789,422" class="edge-thickness-normal edge-pattern-solid flowchart-link"/><path id="L_B_C3_7" marker-end="url(#graph-div_flowchart-v2-pointEnd)" d="M565.956,657L580.476,669.833C594.996,682.667,624.037,708.333,642.724,721.167C661.411,734,669.745,734,680.384,734C691.023,734,703.969,734,710.441,734L716.914,734" class="edge-thickness-normal edge-pattern-solid flowchart-link"/><path id="L_B_C4_8" marker-end="url(#graph-div_flowchart-v2-pointEnd)" d="M549.848,657L567.053,689.167C584.258,721.333,618.668,785.667,640.04,817.833C661.411,850,669.745,850,677.411,850C685.078,850,692.078,850,695.578,850L699.078,850" class="edge-thickness-normal edge-pattern-solid flowchart-link"/><path id="L_E1_F1_9" marker-end="url(#graph-div_flowchart-v2-pointEnd)" d="M1172.914,70L1187.408,70C1201.901,70,1230.888,70,1254.74,70C1278.591,70,1297.307,70,1318.667,70C1340.026,70,1364.029,70,1376.03,70L1388.031,70" class="edge-thickness-normal edge-pattern-solid flowchart-link"/><path id="L_E2_F2_10" marker-end="url(#graph-div_flowchart-v2-pointEnd)" d="M1186.25,174L1198.521,174C1210.792,174,1235.333,174,1256.962,174C1278.591,174,1297.307,174,1315.357,174C1333.406,174,1350.789,174,1359.48,174L1368.172,174" class="edge-thickness-normal edge-pattern-solid flowchart-link"/><path id="L_E3_F3_11" marker-end="url(#graph-div_flowchart-v2-pointEnd)" d="M1178.242,278L1191.848,278C1205.453,278,1232.664,278,1255.628,278C1278.591,278,1297.307,278,1316.628,278C1335.948,278,1355.872,278,1365.835,278L1375.797,278" class="edge-thickness-normal edge-pattern-solid flowchart-link"/><path id="L_C2_E1_12" marker-end="url(#graph-div_flowchart-v2-pointEnd)" d="M821.867,409.052L833.844,406.044C845.82,403.035,869.773,397.017,891.108,394.009C912.443,391,931.159,391,963.887,342.6C996.616,294.201,1043.357,197.401,1066.728,149.002L1090.098,100.602" class="edge-thickness-normal edge-pattern-solid flowchart-link"/><path id="L_C2_E2_13" marker-end="url(#graph-div_flowchart-v2-pointEnd)" d="M821.867,417.406L833.844,416.338C845.82,415.27,869.773,413.135,891.108,412.068C912.443,411,931.159,411,963.042,376.558C994.926,342.116,1039.977,273.232,1062.502,238.79L1085.027,204.348" class="edge-thickness-normal edge-pattern-solid flowchart-link"/><path id="L_C2_E3_14" marker-end="url(#graph-div_flowchart-v2-pointEnd)" d="M821.867,437.036L833.844,440.53C845.82,444.024,869.773,451.012,891.108,454.506C912.443,458,931.159,458,962.04,433.005C992.922,408.01,1035.968,358.021,1057.492,333.026L1079.015,308.031" class="edge-thickness-normal edge-pattern-solid flowchart-link"/></g><g class="edgeLabels"><g class="edgeLabel"><g class="label" transform="translate(355.3671875, 630) translate(-62.3671875, -12)"><foreignObject width="124.734" height="24"><div xmlns="http://www.w3.org/1999/xhtml" style="display:table-cell;white-space:nowrap;line-height:1.5;max-width:200px;text-align:center" class="labelBkg"><span class="edgeLabel"><p>Defines Structure</p></span></div></foreignObject></g></g><g class="edgeLabel"><g class="label" transform="translate(893.7265625, 526) translate(-27.234375, -12)"><foreignObject width="54.469" height="24"><div xmlns="http://www.w3.org/1999/xhtml" style="display:table-cell;white-space:nowrap;line-height:1.5;max-width:200px;text-align:center" class="labelBkg"><span class="edgeLabel"><p>Creates</p></span></div></foreignObject></g></g><g class="edgeLabel"><g class="label" transform="translate(893.7265625, 630) translate(-29.546875, -12)"><foreignObject width="59.094" height="24"><div xmlns="http://www.w3.org/1999/xhtml" style="display:table-cell;white-space:nowrap;line-height:1.5;max-width:200px;text-align:center" class="labelBkg"><span class="edgeLabel"><p>Modifies</p></span></div></foreignObject></g></g><g class="edgeLabel"><g class="label" transform="translate(893.7265625, 734) translate(-31.1484375, -12)"><foreignObject width="62.297" height="24"><div xmlns="http://www.w3.org/1999/xhtml" style="display:table-cell;white-space:nowrap;line-height:1.5;max-width:200px;text-align:center" class="labelBkg"><span class="edgeLabel"><p>Removes</p></span></div></foreignObject></g></g><g class="edgeLabel"><g class="label" transform="translate(893.7265625, 850) translate(-22.0625, -12)"><foreignObject width="44.125" height="24"><div xmlns="http://www.w3.org/1999/xhtml" style="display:table-cell;white-space:nowrap;line-height:1.5;max-width:200px;text-align:center" class="labelBkg"><span class="edgeLabel"><p>Clears</p></span></div></foreignObject></g></g><g class="edgeLabel"><g class="label" transform="translate(0, 0)"><foreignObject width="0" height="0"><div xmlns="http://www.w3.org/1999/xhtml" style="display:table-cell;white-space:nowrap;line-height:1.5;max-width:200px;text-align:center" class="labelBkg"><span class="edgeLabel"/></div></foreignObject></g></g><g class="edgeLabel"><g class="label" transform="translate(0, 0)"><foreignObject width="0" height="0"><div xmlns="http://www.w3.org/1999/xhtml" style="display:table-cell;white-space:nowrap;line-height:1.5;max-width:200px;text-align:center" class="labelBkg"><span class="edgeLabel"/></div></foreignObject></g></g><g class="edgeLabel"><g class="label" transform="translate(0, 0)"><foreignObject width="0" height="0"><div xmlns="http://www.w3.org/1999/xhtml" style="display:table-cell;white-space:nowrap;line-height:1.5;max-width:200px;text-align:center" class="labelBkg"><span class="edgeLabel"/></div></foreignObject></g></g><g class="edgeLabel"><g class="label" transform="translate(0, 0)"><foreignObject width="0" height="0"><div xmlns="http://www.w3.org/1999/xhtml" style="display:table-cell;white-space:nowrap;line-height:1.5;max-width:200px;text-align:center" class="labelBkg"><span class="edgeLabel"/></div></foreignObject></g></g><g class="edgeLabel"><g class="label" transform="translate(1316.0234375, 70) translate(-16.875, -12)"><foreignObject width="33.75" height="24"><div xmlns="http://www.w3.org/1999/xhtml" style="display:table-cell;white-space:nowrap;line-height:1.5;max-width:200px;text-align:center" class="labelBkg"><span class="edgeLabel"><p>Adds</p></span></div></foreignObject></g></g><g class="edgeLabel"><g class="label" transform="translate(1316.0234375, 174) translate(-29.3515625, -12)"><foreignObject width="58.703" height="24"><div xmlns="http://www.w3.org/1999/xhtml" style="display:table-cell;white-space:nowrap;line-height:1.5;max-width:200px;text-align:center" class="labelBkg"><span class="edgeLabel"><p>Changes</p></span></div></foreignObject></g></g><g class="edgeLabel"><g class="label" transform="translate(1316.0234375, 278) translate(-31.1484375, -12)"><foreignObject width="62.297" height="24"><div xmlns="http://www.w3.org/1999/xhtml" style="display:table-cell;white-space:nowrap;line-height:1.5;max-width:200px;text-align:center" class="labelBkg"><span class="edgeLabel"><p>Removes</p></span></div></foreignObject></g></g><g class="edgeLabel"><g class="label" transform="translate(0, 0)"><foreignObject width="0" height="0"><div xmlns="http://www.w3.org/1999/xhtml" style="display:table-cell;white-space:nowrap;line-height:1.5;max-width:200px;text-align:center" class="labelBkg"><span class="edgeLabel"/></div></foreignObject></g></g><g class="edgeLabel"><g class="label" transform="translate(0, 0)"><foreignObject width="0" height="0"><div xmlns="http://www.w3.org/1999/xhtml" style="display:table-cell;white-space:nowrap;line-height:1.5;max-width:200px;text-align:center" class="labelBkg"><span class="edgeLabel"/></div></foreignObject></g></g><g class="edgeLabel"><g class="label" transform="translate(0, 0)"><foreignObject width="0" height="0"><div xmlns="http://www.w3.org/1999/xhtml" style="display:table-cell;white-space:nowrap;line-height:1.5;max-width:200px;text-align:center" class="labelBkg"><span class="edgeLabel"/></div></foreignObject></g></g></g><g class="nodes"><g id="flowchart-A-3555" class="node default" transform="translate(138, 630)"><rect width="260" height="78" x="-130" y="-39" class="basic label-container"/><g class="label" transform="translate(-100, -24)"><rect/><foreignObject width="200" height="48"><div xmlns="http://www.w3.org/1999/xhtml" style="display:table;white-space:break-spaces;line-height:1.5;max-width:200px;text-align:center;width:200px"><span class="nodeLabel"><p>DDL (Data Definition Language)</p></span></div></foreignObject></g></g><g id="flowchart-B-3556" class="node default" transform="translate(535.40625, 630)"><rect width="185.344" height="54" x="-92.672" y="-27" class="basic label-container"/><g class="label" transform="translate(-62.671875, -12)"><rect/><foreignObject width="125.344" height="24"><div xmlns="http://www.w3.org/1999/xhtml" style="display:table-cell;white-space:nowrap;line-height:1.5;max-width:200px;text-align:center"><span class="nodeLabel"><p>Database Objects</p></span></div></foreignObject></g></g><g id="flowchart-C1-3557" class="node default" transform="translate(770.328125, 526)"><rect width="113.203" height="54" x="-56.602" y="-27" class="basic label-container"/><g class="label" transform="translate(-26.6015625, -12)"><rect/><foreignObject width="53.203" height="24"><div xmlns="http://www.w3.org/1999/xhtml" style="display:table-cell;white-space:nowrap;line-height:1.5;max-width:200px;text-align:center"><span class="nodeLabel"><p>CREATE</p></span></div></foreignObject></g></g><g id="flowchart-D1-3558" class="node default" transform="translate(1104.875, 526)"><rect width="220.766" height="54" x="-110.383" y="-27" class="basic label-container"/><g class="label" transform="translate(-80.3828125, -12)"><rect/><foreignObject width="160.766" height="24"><div xmlns="http://www.w3.org/1999/xhtml" style="display:table-cell;white-space:nowrap;line-height:1.5;max-width:200px;text-align:center"><span class="nodeLabel"><p>Tables, Views, Indexes</p></span></div></foreignObject></g></g><g id="flowchart-C2-3559" class="node default" transform="translate(770.328125, 422)"><rect width="103.078" height="54" x="-51.539" y="-27" class="basic label-container"/><g class="label" transform="translate(-21.5390625, -12)"><rect/><foreignObject width="43.078" height="24"><div xmlns="http://www.w3.org/1999/xhtml" style="display:table-cell;white-space:nowrap;line-height:1.5;max-width:200px;text-align:center"><span class="nodeLabel"><p>ALTER</p></span></div></foreignObject></g></g><g id="flowchart-D2-3560" class="node default" transform="translate(1104.875, 630)"><rect width="187.078" height="54" x="-93.539" y="-27" class="basic label-container"/><g class="label" transform="translate(-63.5390625, -12)"><rect/><foreignObject width="127.078" height="24"><div xmlns="http://www.w3.org/1999/xhtml" style="display:table-cell;white-space:nowrap;line-height:1.5;max-width:200px;text-align:center"><span class="nodeLabel"><p>Existing Structure</p></span></div></foreignObject></g></g><g id="flowchart-C3-3561" class="node default" transform="translate(770.328125, 734)"><rect width="98.828" height="54" x="-49.414" y="-27" class="basic label-container"/><g class="label" transform="translate(-19.4140625, -12)"><rect/><foreignObject width="38.828" height="24"><div xmlns="http://www.w3.org/1999/xhtml" style="display:table-cell;white-space:nowrap;line-height:1.5;max-width:200px;text-align:center"><span class="nodeLabel"><p>DROP</p></span></div></foreignObject></g></g><g id="flowchart-D3-3562" class="node default" transform="translate(1104.875, 734)"><rect width="220.766" height="54" x="-110.383" y="-27" class="basic label-container"/><g class="label" transform="translate(-80.3828125, -12)"><rect/><foreignObject width="160.766" height="24"><div xmlns="http://www.w3.org/1999/xhtml" style="display:table-cell;white-space:nowrap;line-height:1.5;max-width:200px;text-align:center"><span class="nodeLabel"><p>Tables, Views, Indexes</p></span></div></foreignObject></g></g><g id="flowchart-C4-3563" class="node default" transform="translate(770.328125, 850)"><rect width="134.5" height="54" x="-67.25" y="-27" class="basic label-container"/><g class="label" transform="translate(-37.25, -12)"><rect/><foreignObject width="74.5" height="24"><div xmlns="http://www.w3.org/1999/xhtml" style="display:table-cell;white-space:nowrap;line-height:1.5;max-width:200px;text-align:center"><span class="nodeLabel"><p>TRUNCATE</p></span></div></foreignObject></g></g><g id="flowchart-D4-3564" class="node default" transform="translate(1104.875, 850)"><rect width="260" height="78" x="-130" y="-39" class="basic label-container"/><g class="label" transform="translate(-100, -24)"><rect/><foreignObject width="200" height="48"><div xmlns="http://www.w3.org/1999/xhtml" style="display:table;white-space:break-spaces;line-height:1.5;max-width:200px;text-align:center;width:200px"><span class="nodeLabel"><p>Table Data but Keeps Structure</p></span></div></foreignObject></g></g><g id="flowchart-E1-3573" class="node default" transform="translate(1104.875, 70)"><rect width="136.078" height="54" x="-68.039" y="-27" class="basic label-container"/><g class="label" transform="translate(-38.0390625, -12)"><rect/><foreignObject width="76.078" height="24"><div xmlns="http://www.w3.org/1999/xhtml" style="display:table-cell;white-space:nowrap;line-height:1.5;max-width:200px;text-align:center"><span class="nodeLabel"><p>ALTER ADD</p></span></div></foreignObject></g></g><g id="flowchart-F1-3574" class="node default" transform="translate(1469.921875, 70)"><rect width="155.781" height="54" x="-77.891" y="-27" class="basic label-container"/><g class="label" transform="translate(-47.890625, -12)"><rect/><foreignObject width="95.781" height="24"><div xmlns="http://www.w3.org/1999/xhtml" style="display:table-cell;white-space:nowrap;line-height:1.5;max-width:200px;text-align:center"><span class="nodeLabel"><p>New Columns</p></span></div></foreignObject></g></g><g id="flowchart-E2-3575" class="node default" transform="translate(1104.875, 174)"><rect width="162.75" height="54" x="-81.375" y="-27" class="basic label-container"/><g class="label" transform="translate(-51.375, -12)"><rect/><foreignObject width="102.75" height="24"><div xmlns="http://www.w3.org/1999/xhtml" style="display:table-cell;white-space:nowrap;line-height:1.5;max-width:200px;text-align:center"><span class="nodeLabel"><p>ALTER UPDATE</p></span></div></foreignObject></g></g><g id="flowchart-F2-3576" class="node default" transform="translate(1469.921875, 174)"><rect width="195.5" height="54" x="-97.75" y="-27" class="basic label-container"/><g class="label" transform="translate(-67.75, -12)"><rect/><foreignObject width="135.5" height="24"><div xmlns="http://www.w3.org/1999/xhtml" style="display:table-cell;white-space:nowrap;line-height:1.5;max-width:200px;text-align:center"><span class="nodeLabel"><p>Column Definitions</p></span></div></foreignObject></g></g><g id="flowchart-E3-3577" class="node default" transform="translate(1104.875, 278)"><rect width="146.734" height="54" x="-73.367" y="-27" class="basic label-container"/><g class="label" transform="translate(-43.3671875, -12)"><rect/><foreignObject width="86.734" height="24"><div xmlns="http://www.w3.org/1999/xhtml" style="display:table-cell;white-space:nowrap;line-height:1.5;max-width:200px;text-align:center"><span class="nodeLabel"><p>ALTER DROP</p></span></div></foreignObject></g></g><g id="flowchart-F3-3578" class="node default" transform="translate(1469.921875, 278)"><rect width="180.25" height="54" x="-90.125" y="-27" class="basic label-container"/><g class="label" transform="translate(-60.125, -12)"><rect/><foreignObject width="120.25" height="24"><div xmlns="http://www.w3.org/1999/xhtml" style="display:table-cell;white-space:nowrap;line-height:1.5;max-width:200px;text-align:center"><span class="nodeLabel"><p>Existing Columns</p></span></div></foreignObject></g></g></g></g></g></svg>