<?xml-stylesheet href="https://cdnjs.cloudflare.com/ajax/libs/font-awesome/6.7.2/css/all.min.css" type="text/css"?><svg xmlns="http://www.w3.org/2000/svg" xmlns:xlink="http://www.w3.org/1999/xlink" id="graph-div" width="100%" height="100%" aria-roledescription="flowchart-v2" role="graphics-document document" viewBox="0 0 938.328 528" style="max-width:100%" class="flowchart"><style>#graph-div{font-family:&quot;trebuchet ms&quot;,verdana,arial,sans-serif;font-size:16px;fill:#333}#graph-div .edge-thickness-normal{stroke-width:1px}#graph-div .edge-pattern-solid{stroke-dasharray:0}#graph-div .marker{fill:#333;stroke:#333}#graph-div .marker.cross{stroke:#333}#graph-div .label,#graph-div svg{font-family:&quot;trebuchet ms&quot;,verdana,arial,sans-serif}#graph-div svg{font-size:16px}#graph-div p{margin:0}#graph-div .cluster span,#graph-div .cluster-label span,#graph-div .label{color:#333}#graph-div .cluster-label span p{background-color:transparent}#graph-div span{fill:#333;color:#333}#graph-div .node circle,#graph-div .node path,#graph-div .node rect{fill:#ececff;stroke:#9370db;stroke-width:1px}#graph-div .flowchart-link{stroke:#333;fill:none}#graph-div .edgeLabel,#graph-div .node .label{text-align:center}#graph-div .edgeLabel,#graph-div .edgeLabel p,#graph-div .edgeLabel rect{background-color:rgba(232,232,232,.8)}#graph-div .edgeLabel rect{opacity:.5;fill:rgba(232,232,232,.8)}#graph-div .labelBkg{background-color:rgba(232,232,232,.5)}#graph-div .cluster rect{fill:#ffffde;stroke:#aa3;stroke-width:1px}#graph-div :root{--mermaid-font-family:&quot;trebuchet ms&quot;,verdana,arial,sans-serif}</style><g><marker id="graph-div_flowchart-v2-pointEnd" class="marker flowchart-v2" markerHeight="8" markerUnits="userSpaceOnUse" markerWidth="8" orient="auto" refX="5" refY="5" viewBox="0 0 10 10"><path style="stroke-width:1;stroke-dasharray:1,0" d="M 0 0 L 10 5 L 0 10 z" class="arrowMarkerPath"/></marker><marker id="graph-div_flowchart-v2-pointStart" class="marker flowchart-v2" markerHeight="8" markerUnits="userSpaceOnUse" markerWidth="8" orient="auto" refX="4.5" refY="5" viewBox="0 0 10 10"><path style="stroke-width:1;stroke-dasharray:1,0" d="M 0 5 L 10 10 L 10 0 z" class="arrowMarkerPath"/></marker><marker id="graph-div_flowchart-v2-circleEnd" class="marker flowchart-v2" markerHeight="11" markerUnits="userSpaceOnUse" markerWidth="11" orient="auto" refX="11" refY="5" viewBox="0 0 10 10"><circle style="stroke-width:1;stroke-dasharray:1,0" cx="5" cy="5" r="5" class="arrowMarkerPath"/></marker><marker id="graph-div_flowchart-v2-circleStart" class="marker flowchart-v2" markerHeight="11" markerUnits="userSpaceOnUse" markerWidth="11" orient="auto" refX="-1" refY="5" viewBox="0 0 10 10"><circle style="stroke-width:1;stroke-dasharray:1,0" cx="5" cy="5" r="5" class="arrowMarkerPath"/></marker><marker id="graph-div_flowchart-v2-crossEnd" class="marker cross flowchart-v2" markerHeight="11" markerUnits="userSpaceOnUse" markerWidth="11" orient="auto" refX="12" refY="5.2" viewBox="0 0 11 11"><path style="stroke-width:2;stroke-dasharray:1,0" d="M 1,1 l 9,9 M 10,1 l -9,9" class="arrowMarkerPath"/></marker><marker id="graph-div_flowchart-v2-crossStart" class="marker cross flowchart-v2" markerHeight="11" markerUnits="userSpaceOnUse" markerWidth="11" orient="auto" refX="-1" refY="5.2" viewBox="0 0 11 11"><path style="stroke-width:2;stroke-dasharray:1,0" d="M 1,1 l 9,9 M 10,1 l -9,9" class="arrowMarkerPath"/></marker><g class="root"><g class="clusters"><g id="Commands" class="cluster" data-look="classic"><rect width="922.328" height="256" x="8" y="264"/><g class="cluster-label" transform="translate(430.53125, 264)"><foreignObject width="77.266" height="24"><div xmlns="http://www.w3.org/1999/xhtml" style="display:table-cell;white-space:nowrap;line-height:1.5;max-width:200px;text-align:center"><span class="nodeLabel"><p>Commands</p></span></div></foreignObject></g></g></g><g class="edgePaths"><path id="L_A_B_0" marker-end="url(#graph-div_flowchart-v2-pointEnd)" d="M429.781,86L429.781,92.167C429.781,98.333,429.781,110.667,429.781,122.333C429.781,134,429.781,145,429.781,150.5L429.781,156" class="edge-thickness-normal edge-pattern-solid flowchart-link"/><path id="L_C1_D1_1" marker-end="url(#graph-div_flowchart-v2-pointEnd)" d="M118.586,343L118.586,349.167C118.586,355.333,118.586,367.667,118.586,381.333C118.586,395,118.586,410,118.586,417.5L118.586,425" class="edge-thickness-normal edge-pattern-solid flowchart-link"/><path id="L_C2_D2_2" marker-end="url(#graph-div_flowchart-v2-pointEnd)" d="M331.992,343L331.992,349.167C331.992,355.333,331.992,367.667,331.992,381.333C331.992,395,331.992,410,331.992,417.5L331.992,425" class="edge-thickness-normal edge-pattern-solid flowchart-link"/><path id="L_C3_D3_3" marker-end="url(#graph-div_flowchart-v2-pointEnd)" d="M527.57,343L527.57,349.167C527.57,355.333,527.57,367.667,527.57,381.333C527.57,395,527.57,410,527.57,417.5L527.57,425" class="edge-thickness-normal edge-pattern-solid flowchart-link"/><path id="L_C4_D4_4" marker-end="url(#graph-div_flowchart-v2-pointEnd)" d="M765.328,343L765.328,349.167C765.328,355.333,765.328,367.667,765.328,379.333C765.328,391,765.328,402,765.328,407.5L765.328,413" class="edge-thickness-normal edge-pattern-solid flowchart-link"/><path id="L_B_C1_5" marker-end="url(#graph-div_flowchart-v2-pointEnd)" d="M348.141,200.642L309.882,207.035C271.622,213.428,195.104,226.214,156.845,236.774C118.586,247.333,118.586,255.667,118.586,263.333C118.586,271,118.586,278,118.586,281.5L118.586,285" class="edge-thickness-normal edge-pattern-solid flowchart-link"/><path id="L_B_C2_6" marker-end="url(#graph-div_flowchart-v2-pointEnd)" d="M379.006,214L371.17,218.167C363.335,222.333,347.664,230.667,339.828,239C331.992,247.333,331.992,255.667,331.992,263.333C331.992,271,331.992,278,331.992,281.5L331.992,285" class="edge-thickness-normal edge-pattern-solid flowchart-link"/><path id="L_B_C3_7" marker-end="url(#graph-div_flowchart-v2-pointEnd)" d="M480.556,214L488.392,218.167C496.228,222.333,511.899,230.667,519.735,239C527.57,247.333,527.57,255.667,527.57,263.333C527.57,271,527.57,278,527.57,281.5L527.57,285" class="edge-thickness-normal edge-pattern-solid flowchart-link"/><path id="L_B_C4_8" marker-end="url(#graph-div_flowchart-v2-pointEnd)" d="M511.422,199.652L553.74,206.21C596.057,212.768,680.693,225.884,723.01,236.609C765.328,247.333,765.328,255.667,765.328,263.333C765.328,271,765.328,278,765.328,281.5L765.328,285" class="edge-thickness-normal edge-pattern-solid flowchart-link"/></g><g class="edgeLabels"><g class="edgeLabel"><g class="label" transform="translate(429.78125, 123) translate(-29.546875, -12)"><foreignObject width="59.094" height="24"><div xmlns="http://www.w3.org/1999/xhtml" style="display:table-cell;white-space:nowrap;line-height:1.5;max-width:200px;text-align:center" class="labelBkg"><span class="edgeLabel"><p>Modifies</p></span></div></foreignObject></g></g><g class="edgeLabel"><g class="label" transform="translate(118.5859375, 380) translate(-16.875, -12)"><foreignObject width="33.75" height="24"><div xmlns="http://www.w3.org/1999/xhtml" style="display:table-cell;white-space:nowrap;line-height:1.5;max-width:200px;text-align:center" class="labelBkg"><span class="edgeLabel"><p>Adds</p></span></div></foreignObject></g></g><g class="edgeLabel"><g class="label" transform="translate(331.9921875, 380) translate(-29.546875, -12)"><foreignObject width="59.094" height="24"><div xmlns="http://www.w3.org/1999/xhtml" style="display:table-cell;white-space:nowrap;line-height:1.5;max-width:200px;text-align:center" class="labelBkg"><span class="edgeLabel"><p>Modifies</p></span></div></foreignObject></g></g><g class="edgeLabel"><g class="label" transform="translate(527.5703125, 380) translate(-31.1484375, -12)"><foreignObject width="62.297" height="24"><div xmlns="http://www.w3.org/1999/xhtml" style="display:table-cell;white-space:nowrap;line-height:1.5;max-width:200px;text-align:center" class="labelBkg"><span class="edgeLabel"><p>Removes</p></span></div></foreignObject></g></g><g class="edgeLabel"><g class="label" transform="translate(765.328125, 380) translate(-34.4296875, -12)"><foreignObject width="68.859" height="24"><div xmlns="http://www.w3.org/1999/xhtml" style="display:table-cell;white-space:nowrap;line-height:1.5;max-width:200px;text-align:center" class="labelBkg"><span class="edgeLabel"><p>Combines</p></span></div></foreignObject></g></g><g class="edgeLabel"><g class="label" transform="translate(0, 0)"><foreignObject width="0" height="0"><div xmlns="http://www.w3.org/1999/xhtml" style="display:table-cell;white-space:nowrap;line-height:1.5;max-width:200px;text-align:center" class="labelBkg"><span class="edgeLabel"/></div></foreignObject></g></g><g class="edgeLabel"><g class="label" transform="translate(0, 0)"><foreignObject width="0" height="0"><div xmlns="http://www.w3.org/1999/xhtml" style="display:table-cell;white-space:nowrap;line-height:1.5;max-width:200px;text-align:center" class="labelBkg"><span class="edgeLabel"/></div></foreignObject></g></g><g class="edgeLabel"><g class="label" transform="translate(0, 0)"><foreignObject width="0" height="0"><div xmlns="http://www.w3.org/1999/xhtml" style="display:table-cell;white-space:nowrap;line-height:1.5;max-width:200px;text-align:center" class="labelBkg"><span class="edgeLabel"/></div></foreignObject></g></g><g class="edgeLabel"><g class="label" transform="translate(0, 0)"><foreignObject width="0" height="0"><div xmlns="http://www.w3.org/1999/xhtml" style="display:table-cell;white-space:nowrap;line-height:1.5;max-width:200px;text-align:center" class="labelBkg"><span class="edgeLabel"/></div></foreignObject></g></g></g><g class="nodes"><g id="flowchart-A-4537" class="node default" transform="translate(429.78125, 47)"><rect width="260" height="78" x="-130" y="-39" class="basic label-container"/><g class="label" transform="translate(-100, -24)"><rect/><foreignObject width="200" height="48"><div xmlns="http://www.w3.org/1999/xhtml" style="display:table;white-space:break-spaces;line-height:1.5;max-width:200px;text-align:center;width:200px"><span class="nodeLabel"><p>DML (Data Manipulation Language)</p></span></div></foreignObject></g></g><g id="flowchart-B-4538" class="node default" transform="translate(429.78125, 187)"><rect width="163.281" height="54" x="-81.641" y="-27" class="basic label-container"/><g class="label" transform="translate(-51.640625, -12)"><rect/><foreignObject width="103.281" height="24"><div xmlns="http://www.w3.org/1999/xhtml" style="display:table-cell;white-space:nowrap;line-height:1.5;max-width:200px;text-align:center"><span class="nodeLabel"><p>Database Data</p></span></div></foreignObject></g></g><g id="flowchart-C1-4539" class="node default" transform="translate(118.5859375, 316)"><rect width="108.875" height="54" x="-54.438" y="-27" class="basic label-container"/><g class="label" transform="translate(-24.4375, -12)"><rect/><foreignObject width="48.875" height="24"><div xmlns="http://www.w3.org/1999/xhtml" style="display:table-cell;white-space:nowrap;line-height:1.5;max-width:200px;text-align:center"><span class="nodeLabel"><p>INSERT</p></span></div></foreignObject></g></g><g id="flowchart-D1-4540" class="node default" transform="translate(118.5859375, 456)"><rect width="151.172" height="54" x="-75.586" y="-27" class="basic label-container"/><g class="label" transform="translate(-45.5859375, -12)"><rect/><foreignObject width="91.172" height="24"><div xmlns="http://www.w3.org/1999/xhtml" style="display:table-cell;white-space:nowrap;line-height:1.5;max-width:200px;text-align:center"><span class="nodeLabel"><p>New Records</p></span></div></foreignObject></g></g><g id="flowchart-C2-4541" class="node default" transform="translate(331.9921875, 316)"><rect width="114.859" height="54" x="-57.43" y="-27" class="basic label-container"/><g class="label" transform="translate(-27.4296875, -12)"><rect/><foreignObject width="54.859" height="24"><div xmlns="http://www.w3.org/1999/xhtml" style="display:table-cell;white-space:nowrap;line-height:1.5;max-width:200px;text-align:center"><span class="nodeLabel"><p>UPDATE</p></span></div></foreignObject></g></g><g id="flowchart-D2-4542" class="node default" transform="translate(331.9921875, 456)"><rect width="175.641" height="54" x="-87.82" y="-27" class="basic label-container"/><g class="label" transform="translate(-57.8203125, -12)"><rect/><foreignObject width="115.641" height="24"><div xmlns="http://www.w3.org/1999/xhtml" style="display:table-cell;white-space:nowrap;line-height:1.5;max-width:200px;text-align:center"><span class="nodeLabel"><p>Existing Records</p></span></div></foreignObject></g></g><g id="flowchart-C3-4543" class="node default" transform="translate(527.5703125, 316)"><rect width="112.922" height="54" x="-56.461" y="-27" class="basic label-container"/><g class="label" transform="translate(-26.4609375, -12)"><rect/><foreignObject width="52.922" height="24"><div xmlns="http://www.w3.org/1999/xhtml" style="display:table-cell;white-space:nowrap;line-height:1.5;max-width:200px;text-align:center"><span class="nodeLabel"><p>DELETE</p></span></div></foreignObject></g></g><g id="flowchart-D3-4544" class="node default" transform="translate(527.5703125, 456)"><rect width="115.516" height="54" x="-57.758" y="-27" class="basic label-container"/><g class="label" transform="translate(-27.7578125, -12)"><rect/><foreignObject width="55.516" height="24"><div xmlns="http://www.w3.org/1999/xhtml" style="display:table-cell;white-space:nowrap;line-height:1.5;max-width:200px;text-align:center"><span class="nodeLabel"><p>Records</p></span></div></foreignObject></g></g><g id="flowchart-C4-4545" class="node default" transform="translate(765.328125, 316)"><rect width="108.625" height="54" x="-54.313" y="-27" class="basic label-container"/><g class="label" transform="translate(-24.3125, -12)"><rect/><foreignObject width="48.625" height="24"><div xmlns="http://www.w3.org/1999/xhtml" style="display:table-cell;white-space:nowrap;line-height:1.5;max-width:200px;text-align:center"><span class="nodeLabel"><p>MERGE</p></span></div></foreignObject></g></g><g id="flowchart-D4-4546" class="node default" transform="translate(765.328125, 456)"><rect width="260" height="78" x="-130" y="-39" class="basic label-container"/><g class="label" transform="translate(-100, -24)"><rect/><foreignObject width="200" height="48"><div xmlns="http://www.w3.org/1999/xhtml" style="display:table;white-space:break-spaces;line-height:1.5;max-width:200px;text-align:center;width:200px"><span class="nodeLabel"><p>Insert &amp; Update Based on Conditions</p></span></div></foreignObject></g></g></g></g></g></svg>