<?xml-stylesheet href="https://cdnjs.cloudflare.com/ajax/libs/font-awesome/6.7.2/css/all.min.css" type="text/css"?><svg xmlns="http://www.w3.org/2000/svg" xmlns:xlink="http://www.w3.org/1999/xlink" id="graph-div" width="100%" height="100%" aria-roledescription="flowchart-v2" role="graphics-document document" viewBox="0 0 1189.531 809" style="max-width:100%" class="flowchart"><style>#graph-div{font-family:&quot;trebuchet ms&quot;,verdana,arial,sans-serif;font-size:16px;fill:#333}#graph-div .edge-thickness-normal{stroke-width:1px}#graph-div .edge-pattern-solid{stroke-dasharray:0}#graph-div .marker{fill:#333;stroke:#333}#graph-div .marker.cross{stroke:#333}#graph-div .label,#graph-div svg{font-family:&quot;trebuchet ms&quot;,verdana,arial,sans-serif}#graph-div svg{font-size:16px}#graph-div p{margin:0}#graph-div .cluster span,#graph-div .cluster-label span,#graph-div .label{color:#333}#graph-div .cluster-label span p{background-color:transparent}#graph-div span{fill:#333;color:#333}#graph-div .node circle,#graph-div .node path,#graph-div .node rect{fill:#ececff;stroke:#9370db;stroke-width:1px}#graph-div .flowchart-link{stroke:#333;fill:none}#graph-div .edgeLabel,#graph-div .node .label{text-align:center}#graph-div .edgeLabel,#graph-div .edgeLabel p,#graph-div .edgeLabel rect{background-color:rgba(232,232,232,.8)}#graph-div .edgeLabel rect{opacity:.5;fill:rgba(232,232,232,.8)}#graph-div .labelBkg{background-color:rgba(232,232,232,.5)}#graph-div .cluster rect{fill:#ffffde;stroke:#aa3;stroke-width:1px}#graph-div :root{--mermaid-font-family:&quot;trebuchet ms&quot;,verdana,arial,sans-serif}</style><g><marker id="graph-div_flowchart-v2-pointEnd" class="marker flowchart-v2" markerHeight="8" markerUnits="userSpaceOnUse" markerWidth="8" orient="auto" refX="5" refY="5" viewBox="0 0 10 10"><path style="stroke-width:1;stroke-dasharray:1,0" d="M 0 0 L 10 5 L 0 10 z" class="arrowMarkerPath"/></marker><marker id="graph-div_flowchart-v2-pointStart" class="marker flowchart-v2" markerHeight="8" markerUnits="userSpaceOnUse" markerWidth="8" orient="auto" refX="4.5" refY="5" viewBox="0 0 10 10"><path style="stroke-width:1;stroke-dasharray:1,0" d="M 0 5 L 10 10 L 10 0 z" class="arrowMarkerPath"/></marker><marker id="graph-div_flowchart-v2-circleEnd" class="marker flowchart-v2" markerHeight="11" markerUnits="userSpaceOnUse" markerWidth="11" orient="auto" refX="11" refY="5" viewBox="0 0 10 10"><circle style="stroke-width:1;stroke-dasharray:1,0" cx="5" cy="5" r="5" class="arrowMarkerPath"/></marker><marker id="graph-div_flowchart-v2-circleStart" class="marker flowchart-v2" markerHeight="11" markerUnits="userSpaceOnUse" markerWidth="11" orient="auto" refX="-1" refY="5" viewBox="0 0 10 10"><circle style="stroke-width:1;stroke-dasharray:1,0" cx="5" cy="5" r="5" class="arrowMarkerPath"/></marker><marker id="graph-div_flowchart-v2-crossEnd" class="marker cross flowchart-v2" markerHeight="11" markerUnits="userSpaceOnUse" markerWidth="11" orient="auto" refX="12" refY="5.2" viewBox="0 0 11 11"><path style="stroke-width:2;stroke-dasharray:1,0" d="M 1,1 l 9,9 M 10,1 l -9,9" class="arrowMarkerPath"/></marker><marker id="graph-div_flowchart-v2-crossStart" class="marker cross flowchart-v2" markerHeight="11" markerUnits="userSpaceOnUse" markerWidth="11" orient="auto" refX="-1" refY="5.2" viewBox="0 0 11 11"><path style="stroke-width:2;stroke-dasharray:1,0" d="M 1,1 l 9,9 M 10,1 l -9,9" class="arrowMarkerPath"/></marker><g class="root"><g class="clusters"><g id="subGraph1" class="cluster" data-look="classic"><rect width="330" height="433" x="8" y="368"/><g class="cluster-label" transform="translate(73, 368)"><foreignObject width="200" height="48"><div xmlns="http://www.w3.org/1999/xhtml" style="display:table;white-space:break-spaces;line-height:1.5;max-width:200px;text-align:center;width:200px"><span class="nodeLabel"><p>Example: Retail Fraud Prevention</p></span></div></foreignObject></g></g><g id="subGraph0" class="cluster" data-look="classic"><rect width="823.531" height="280" x="358" y="368"/><g class="cluster-label" transform="translate(727.984375, 368)"><foreignObject width="83.563" height="24"><div xmlns="http://www.w3.org/1999/xhtml" style="display:table-cell;white-space:nowrap;line-height:1.5;max-width:200px;text-align:center"><span class="nodeLabel"><p>Key Aspects</p></span></div></foreignObject></g></g></g><g class="edgePaths"><path id="L_A_B_0" marker-end="url(#graph-div_flowchart-v2-pointEnd)" d="M657.164,62L657.164,68.167C657.164,74.333,657.164,86.667,657.164,98.333C657.164,110,657.164,121,657.164,126.5L657.164,132" class="edge-thickness-normal edge-pattern-solid flowchart-link"/><path id="L_B_C_1" marker-end="url(#graph-div_flowchart-v2-pointEnd)" d="M657.164,190L657.164,196.167C657.164,202.333,657.164,214.667,657.164,226.333C657.164,238,657.164,249,657.164,254.5L657.164,260" class="edge-thickness-normal edge-pattern-solid flowchart-link"/><path id="L_D1_D2_2" marker-end="url(#graph-div_flowchart-v2-pointEnd)" d="M523,471L523,477.167C523,483.333,523,495.667,523,509.333C523,523,523,538,523,545.5L523,553" class="edge-thickness-normal edge-pattern-solid flowchart-link"/><path id="L_D3_D4_3" marker-end="url(#graph-div_flowchart-v2-pointEnd)" d="M791.328,459L791.328,467.167C791.328,475.333,791.328,491.667,791.328,507.333C791.328,523,791.328,538,791.328,545.5L791.328,553" class="edge-thickness-normal edge-pattern-solid flowchart-link"/><path id="L_D5_D6_4" marker-end="url(#graph-div_flowchart-v2-pointEnd)" d="M1034.297,459L1034.297,467.167C1034.297,475.333,1034.297,491.667,1034.297,507.333C1034.297,523,1034.297,538,1034.297,545.5L1034.297,553" class="edge-thickness-normal edge-pattern-solid flowchart-link"/><path id="L_E1_E2_5" marker-end="url(#graph-div_flowchart-v2-pointEnd)" d="M173,459L173,467.167C173,475.333,173,491.667,173,505.333C173,519,173,530,173,535.5L173,541" class="edge-thickness-normal edge-pattern-solid flowchart-link"/><path id="L_E2_E3_6" marker-end="url(#graph-div_flowchart-v2-pointEnd)" d="M173,623L173,627.167C173,631.333,173,639.667,173,650C173,660.333,173,672.667,173,684.333C173,696,173,707,173,712.5L173,718" class="edge-thickness-normal edge-pattern-solid flowchart-link"/><path id="L_C_D1_7" marker-end="url(#graph-div_flowchart-v2-pointEnd)" d="M587.502,318L576.752,322.167C566.001,326.333,544.501,334.667,533.75,343C523,351.333,523,359.667,523,367.333C523,375,523,382,523,385.5L523,389" class="edge-thickness-normal edge-pattern-solid flowchart-link"/><path id="L_C_D3_8" marker-end="url(#graph-div_flowchart-v2-pointEnd)" d="M726.826,318L737.576,322.167C748.327,326.333,769.827,334.667,780.578,343C791.328,351.333,791.328,359.667,791.328,369.333C791.328,379,791.328,390,791.328,395.5L791.328,401" class="edge-thickness-normal edge-pattern-solid flowchart-link"/><path id="L_C_D5_9" marker-end="url(#graph-div_flowchart-v2-pointEnd)" d="M763.758,305.697L808.848,311.915C853.938,318.132,944.117,330.566,989.207,340.95C1034.297,351.333,1034.297,359.667,1034.297,369.333C1034.297,379,1034.297,390,1034.297,395.5L1034.297,401" class="edge-thickness-normal edge-pattern-solid flowchart-link"/><path id="L_C_E1_10" marker-end="url(#graph-div_flowchart-v2-pointEnd)" d="M550.57,302.448L487.642,309.207C424.714,315.966,298.857,329.483,235.928,340.408C173,351.333,173,359.667,173,369.333C173,379,173,390,173,395.5L173,401" class="edge-thickness-normal edge-pattern-solid flowchart-link"/></g><g class="edgeLabels"><g class="edgeLabel"><g class="label" transform="translate(657.1640625, 99) translate(-26.484375, -12)"><foreignObject width="52.969" height="24"><div xmlns="http://www.w3.org/1999/xhtml" style="display:table-cell;white-space:nowrap;line-height:1.5;max-width:200px;text-align:center" class="labelBkg"><span class="edgeLabel"><p>Defines</p></span></div></foreignObject></g></g><g class="edgeLabel"><g class="label" transform="translate(657.1640625, 227) translate(-26.9765625, -12)"><foreignObject width="53.953" height="24"><div xmlns="http://www.w3.org/1999/xhtml" style="display:table-cell;white-space:nowrap;line-height:1.5;max-width:200px;text-align:center" class="labelBkg"><span class="edgeLabel"><p>Ensures</p></span></div></foreignObject></g></g><g class="edgeLabel"><g class="label" transform="translate(523, 508) translate(-41.484375, -12)"><foreignObject width="82.969" height="24"><div xmlns="http://www.w3.org/1999/xhtml" style="display:table-cell;white-space:nowrap;line-height:1.5;max-width:200px;text-align:center" class="labelBkg"><span class="edgeLabel"><p>Tailored for</p></span></div></foreignObject></g></g><g class="edgeLabel"><g class="label" transform="translate(791.328125, 508) translate(-29.3984375, -12)"><foreignObject width="58.797" height="24"><div xmlns="http://www.w3.org/1999/xhtml" style="display:table-cell;white-space:nowrap;line-height:1.5;max-width:200px;text-align:center" class="labelBkg"><span class="edgeLabel"><p>Protects</p></span></div></foreignObject></g></g><g class="edgeLabel"><g class="label" transform="translate(1034.296875, 508) translate(-30.9453125, -12)"><foreignObject width="61.891" height="24"><div xmlns="http://www.w3.org/1999/xhtml" style="display:table-cell;white-space:nowrap;line-height:1.5;max-width:200px;text-align:center" class="labelBkg"><span class="edgeLabel"><p>Supports</p></span></div></foreignObject></g></g><g class="edgeLabel"><g class="label" transform="translate(173, 508) translate(-99.4921875, -12)"><foreignObject width="198.984" height="24"><div xmlns="http://www.w3.org/1999/xhtml" style="display:table-cell;white-space:nowrap;line-height:1.5;max-width:200px;text-align:center" class="labelBkg"><span class="edgeLabel"><p>Restricts Large Transactions</p></span></div></foreignObject></g></g><g class="edgeLabel"><g class="label" transform="translate(173, 685) translate(-30.625, -12)"><foreignObject width="61.25" height="24"><div xmlns="http://www.w3.org/1999/xhtml" style="display:table-cell;white-space:nowrap;line-height:1.5;max-width:200px;text-align:center" class="labelBkg"><span class="edgeLabel"><p>Prevents</p></span></div></foreignObject></g></g><g class="edgeLabel"><g class="label" transform="translate(0, 0)"><foreignObject width="0" height="0"><div xmlns="http://www.w3.org/1999/xhtml" style="display:table-cell;white-space:nowrap;line-height:1.5;max-width:200px;text-align:center" class="labelBkg"><span class="edgeLabel"/></div></foreignObject></g></g><g class="edgeLabel"><g class="label" transform="translate(0, 0)"><foreignObject width="0" height="0"><div xmlns="http://www.w3.org/1999/xhtml" style="display:table-cell;white-space:nowrap;line-height:1.5;max-width:200px;text-align:center" class="labelBkg"><span class="edgeLabel"/></div></foreignObject></g></g><g class="edgeLabel"><g class="label" transform="translate(0, 0)"><foreignObject width="0" height="0"><div xmlns="http://www.w3.org/1999/xhtml" style="display:table-cell;white-space:nowrap;line-height:1.5;max-width:200px;text-align:center" class="labelBkg"><span class="edgeLabel"/></div></foreignObject></g></g><g class="edgeLabel"><g class="label" transform="translate(0, 0)"><foreignObject width="0" height="0"><div xmlns="http://www.w3.org/1999/xhtml" style="display:table-cell;white-space:nowrap;line-height:1.5;max-width:200px;text-align:center" class="labelBkg"><span class="edgeLabel"/></div></foreignObject></g></g></g><g class="nodes"><g id="flowchart-A-2837" class="node default" transform="translate(657.1640625, 35)"><rect width="235.5" height="54" x="-117.75" y="-27" class="basic label-container"/><g class="label" transform="translate(-87.75, -12)"><rect/><foreignObject width="175.5" height="24"><div xmlns="http://www.w3.org/1999/xhtml" style="display:table-cell;white-space:nowrap;line-height:1.5;max-width:200px;text-align:center"><span class="nodeLabel"><p>Enterprise Integrity Rule</p></span></div></foreignObject></g></g><g id="flowchart-B-2838" class="node default" transform="translate(657.1640625, 163)"><rect width="219.422" height="54" x="-109.711" y="-27" class="basic label-container"/><g class="label" transform="translate(-79.7109375, -12)"><rect/><foreignObject width="159.422" height="24"><div xmlns="http://www.w3.org/1999/xhtml" style="display:table-cell;white-space:nowrap;line-height:1.5;max-width:200px;text-align:center"><span class="nodeLabel"><p>Custom Business Rules</p></span></div></foreignObject></g></g><g id="flowchart-C-2840" class="node default" transform="translate(657.1640625, 291)"><rect width="213.188" height="54" x="-106.594" y="-27" class="basic label-container"/><g class="label" transform="translate(-76.59375, -12)"><rect/><foreignObject width="153.188" height="24"><div xmlns="http://www.w3.org/1999/xhtml" style="display:table-cell;white-space:nowrap;line-height:1.5;max-width:200px;text-align:center"><span class="nodeLabel"><p>Security &amp; Scalability</p></span></div></foreignObject></g></g><g id="flowchart-D1-2841" class="node default" transform="translate(523, 432)"><rect width="260" height="78" x="-130" y="-39" class="basic label-container"/><g class="label" transform="translate(-100, -24)"><rect/><foreignObject width="200" height="48"><div xmlns="http://www.w3.org/1999/xhtml" style="display:table;white-space:break-spaces;line-height:1.5;max-width:200px;text-align:center;width:200px"><span class="nodeLabel"><p>Business-Specific Constraints</p></span></div></foreignObject></g></g><g id="flowchart-D2-2842" class="node default" transform="translate(523, 584)"><rect width="228.156" height="54" x="-114.078" y="-27" class="basic label-container"/><g class="label" transform="translate(-84.078125, -12)"><rect/><foreignObject width="168.156" height="24"><div xmlns="http://www.w3.org/1999/xhtml" style="display:table-cell;white-space:nowrap;line-height:1.5;max-width:200px;text-align:center"><span class="nodeLabel"><p>Unique Company Needs</p></span></div></foreignObject></g></g><g id="flowchart-D3-2843" class="node default" transform="translate(791.328125, 432)"><rect width="176.656" height="54" x="-88.328" y="-27" class="basic label-container"/><g class="label" transform="translate(-58.328125, -12)"><rect/><foreignObject width="116.656" height="24"><div xmlns="http://www.w3.org/1999/xhtml" style="display:table-cell;white-space:nowrap;line-height:1.5;max-width:200px;text-align:center"><span class="nodeLabel"><p>Security Policies</p></span></div></foreignObject></g></g><g id="flowchart-D4-2844" class="node default" transform="translate(791.328125, 584)"><rect width="161.469" height="54" x="-80.734" y="-27" class="basic label-container"/><g class="label" transform="translate(-50.734375, -12)"><rect/><foreignObject width="101.469" height="24"><div xmlns="http://www.w3.org/1999/xhtml" style="display:table-cell;white-space:nowrap;line-height:1.5;max-width:200px;text-align:center"><span class="nodeLabel"><p>Sensitive Data</p></span></div></foreignObject></g></g><g id="flowchart-D5-2845" class="node default" transform="translate(1034.296875, 432)"><rect width="176.484" height="54" x="-88.242" y="-27" class="basic label-container"/><g class="label" transform="translate(-58.2421875, -12)"><rect/><foreignObject width="116.484" height="24"><div xmlns="http://www.w3.org/1999/xhtml" style="display:table-cell;white-space:nowrap;line-height:1.5;max-width:200px;text-align:center"><span class="nodeLabel"><p>Scalability Rules</p></span></div></foreignObject></g></g><g id="flowchart-D6-2846" class="node default" transform="translate(1034.296875, 584)"><rect width="224.469" height="54" x="-112.234" y="-27" class="basic label-container"/><g class="label" transform="translate(-82.234375, -12)"><rect/><foreignObject width="164.469" height="24"><div xmlns="http://www.w3.org/1999/xhtml" style="display:table-cell;white-space:nowrap;line-height:1.5;max-width:200px;text-align:center"><span class="nodeLabel"><p>Growth &amp; Performance</p></span></div></foreignObject></g></g><g id="flowchart-E1-2847" class="node default" transform="translate(173, 432)"><rect width="201.688" height="54" x="-100.844" y="-27" class="basic label-container"/><g class="label" transform="translate(-70.84375, -12)"><rect/><foreignObject width="141.688" height="24"><div xmlns="http://www.w3.org/1999/xhtml" style="display:table-cell;white-space:nowrap;line-height:1.5;max-width:200px;text-align:center"><span class="nodeLabel"><p>Purchase Limit Rule</p></span></div></foreignObject></g></g><g id="flowchart-E2-2848" class="node default" transform="translate(173, 584)"><rect width="260" height="78" x="-130" y="-39" class="basic label-container"/><g class="label" transform="translate(-100, -24)"><rect/><foreignObject width="200" height="48"><div xmlns="http://www.w3.org/1999/xhtml" style="display:table;white-space:break-spaces;line-height:1.5;max-width:200px;text-align:center;width:200px"><span class="nodeLabel"><p>Without Additional Verification</p></span></div></foreignObject></g></g><g id="flowchart-E3-2850" class="node default" transform="translate(173, 749)"><rect width="213.406" height="54" x="-106.703" y="-27" class="basic label-container"/><g class="label" transform="translate(-76.703125, -12)"><rect/><foreignObject width="153.406" height="24"><div xmlns="http://www.w3.org/1999/xhtml" style="display:table-cell;white-space:nowrap;line-height:1.5;max-width:200px;text-align:center"><span class="nodeLabel"><p>Fraudulent Purchases</p></span></div></foreignObject></g></g></g></g></g></svg>